  0
SECTION
  2
HEADER
  9
$ACADVER
  1
AC1009
  9
$DWGCODEPAGE
  3
ansi_1252
  9
$INSBASE
 10
0.0
 20
0.0
 30
0.0
  9
$EXTMIN
 10
0.1249999999999964
 20
0.1431889763800136
 30
0.0
  9
$EXTMAX
 10
90.84719488156
 20
47.64318897638
 30
0.0
  9
$LIMMIN
 10
0.0
 20
0.0
  9
$LIMMAX
 10
12.0
 20
9.0
  9
$ORTHOMODE
 70
     0
  9
$REGENMODE
 70
     1
  9
$FILLMODE
 70
     1
  9
$QTEXTMODE
 70
     0
  9
$MIRRTEXT
 70
     1
  9
$DRAGMODE
 70
     2
  9
$LTSCALE
 40
1.0
  9
$OSMODE
 70
    37
  9
$ATTMODE
 70
     1
  9
$TEXTSIZE
 40
0.2
  9
$TRACEWID
 40
0.05
  9
$TEXTSTYLE
  7
STANDARD
  9
$CLAYER
  8
0
  9
$CELTYPE
  6
BYLAYER
  9
$CECOLOR
 62
   256
  9
$DIMSCALE
 40
1.0
  9
$DIMASZ
 40
0.18
  9
$DIMEXO
 40
0.0625
  9
$DIMDLI
 40
0.38
  9
$DIMRND
 40
0.0
  9
$DIMDLE
 40
0.0
  9
$DIMEXE
 40
0.18
  9
$DIMTP
 40
0.0
  9
$DIMTM
 40
0.0
  9
$DIMTXT
 40
0.18
  9
$DIMCEN
 40
0.09
  9
$DIMTSZ
 40
0.0
  9
$DIMTOL
 70
     0
  9
$DIMLIM
 70
     0
  9
$DIMTIH
 70
     1
  9
$DIMTOH
 70
     1
  9
$DIMSE1
 70
     0
  9
$DIMSE2
 70
     0
  9
$DIMTAD
 70
     0
  9
$DIMZIN
 70
     0
  9
$DIMBLK
  1

  9
$DIMASO
 70
     1
  9
$DIMSHO
 70
     1
  9
$DIMPOST
  1

  9
$DIMAPOST
  1

  9
$DIMALT
 70
     0
  9
$DIMALTD
 70
     2
  9
$DIMALTF
 40
25.4
  9
$DIMLFAC
 40
1.0
  9
$DIMTOFL
 70
     0
  9
$DIMTVP
 40
0.0
  9
$DIMTIX
 70
     0
  9
$DIMSOXD
 70
     0
  9
$DIMSAH
 70
     0
  9
$DIMBLK1
  1

  9
$DIMBLK2
  1

  9
$DIMSTYLE
  2
STANDARD
  9
$DIMCLRD
 70
     0
  9
$DIMCLRE
 70
     0
  9
$DIMCLRT
 70
     0
  9
$DIMTFAC
 40
1.0
  9
$DIMGAP
 40
0.09
  9
$LUNITS
 70
     2
  9
$LUPREC
 70
     4
  9
$SKETCHINC
 40
0.1
  9
$FILLETRAD
 40
0.5
  9
$AUNITS
 70
     0
  9
$AUPREC
 70
     0
  9
$MENU
  1
.
  9
$ELEVATION
 40
0.0
  9
$PELEVATION
 40
0.0
  9
$THICKNESS
 40
0.0
  9
$LIMCHECK
 70
     0
  9
$CHAMFERA
 40
0.0
  9
$CHAMFERB
 40
0.0
  9
$SKPOLY
 70
     0
  9
$TDCREATE
 40
2454910.5
  9
$TDUPDATE
 40
2458486.569379757
  9
$TDINDWG
 40
0.0000000116
  9
$TDUSRTIMER
 40
0.0000000116
  9
$USRTIMER
 70
     1
  9
$ANGBASE
 50
0.0
  9
$ANGDIR
 70
     0
  9
$PDMODE
 70
     0
  9
$PDSIZE
 40
0.0
  9
$PLINEWID
 40
0.0
  9
$COORDS
 70
     1
  9
$SPLFRAME
 70
     0
  9
$SPLINETYPE
 70
     6
  9
$SPLINESEGS
 70
     8
  9
$ATTDIA
 70
     0
  9
$ATTREQ
 70
     1
  9
$HANDLING
 70
     1
  9
$HANDSEED
  5
14D
  9
$SURFTAB1
 70
     6
  9
$SURFTAB2
 70
     6
  9
$SURFTYPE
 70
     6
  9
$SURFU
 70
     6
  9
$SURFV
 70
     6
  9
$UCSNAME
  2

  9
$UCSORG
 10
0.0
 20
0.0
 30
0.0
  9
$UCSXDIR
 10
1.0
 20
0.0
 30
0.0
  9
$UCSYDIR
 10
0.0
 20
1.0
 30
0.0
  9
$PUCSNAME
  2

  9
$PUCSORG
 10
0.0
 20
0.0
 30
0.0
  9
$PUCSXDIR
 10
1.0
 20
0.0
 30
0.0
  9
$PUCSYDIR
 10
0.0
 20
1.0
 30
0.0
  9
$USERI1
 70
     0
  9
$USERI2
 70
     0
  9
$USERI3
 70
     0
  9
$USERI4
 70
     0
  9
$USERI5
 70
     0
  9
$USERR1
 40
0.0
  9
$USERR2
 40
0.0
  9
$USERR3
 40
0.0
  9
$USERR4
 40
0.0
  9
$USERR5
 40
0.0
  9
$WORLDVIEW
 70
     1
  9
$SHADEDGE
 70
     3
  9
$SHADEDIF
 70
    70
  9
$TILEMODE
 70
     1
  9
$MAXACTVP
 70
    64
  9
$PLIMCHECK
 70
     0
  9
$PEXTMIN
 10
1.000000000000000E+20
 20
1.000000000000000E+20
 30
1.000000000000000E+20
  9
$PEXTMAX
 10
-1.000000000000000E+20
 20
-1.000000000000000E+20
 30
-1.000000000000000E+20
  9
$PLIMMIN
 10
0.0
 20
0.0
  9
$PLIMMAX
 10
12.0
 20
9.0
  9
$UNITMODE
 70
     0
  9
$VISRETAIN
 70
     1
  9
$PLINEGEN
 70
     0
  9
$PSLTSCALE
 70
     1
  0
ENDSEC
  0
SECTION
  2
TABLES
  0
TABLE
  2
VPORT
 70
     1
  0
VPORT
  2
*ACTIVE
 70
     0
 10
0.0
 20
0.0
 11
1.0
 21
1.0
 12
10.42990654205607
 22
4.5
 13
0.0
 23
0.0
 14
0.5
 24
0.5
 15
0.5
 25
0.5
 16
0.0
 26
0.0
 36
1.0
 17
0.0
 27
0.0
 37
0.0
 40
9.0
 41
1.972972972850329
 42
50.0
 43
0.0
 44
0.0
 50
0.0
 51
0.0
 71
     0
 72
   100
 73
     1
 74
     3
 75
     0
 76
     0
 77
     0
 78
     0
  0
ENDTAB
  0
TABLE
  2
LTYPE
 70
     2
  0
LTYPE
  2
CONTINUOUS
 70
     0
  3
Solid line
 72
    65
 73
     0
 40
0.0
  0
LTYPE
  2
CONTINUOUS2
 70
     0
  3
Solid Line
 72
    65
 73
     0
 40
0.0
  0
ENDTAB
  0
TABLE
  2
LAYER
 70
     1
  0
LAYER
  2
0
 70
     0
 62
     7
  6
CONTINUOUS
  0
ENDTAB
  0
TABLE
  2
STYLE
 70
     1
  0
STYLE
  2
STANDARD
 70
     0
 40
0.0
 41
1.0
 50
0.0
 71
     0
 42
0.2
  3
txt
  4

  0
ENDTAB
  0
TABLE
  2
VIEW
 70
     0
  0
ENDTAB
  0
TABLE
  2
UCS
 70
     0
  0
ENDTAB
  0
TABLE
  2
APPID
 70
     1
  0
APPID
  2
ACAD
 70
     0
  0
ENDTAB
  0
TABLE
  2
DIMSTYLE
 70
     1
  0
DIMSTYLE
  2
STANDARD
 70
     0
  3

  4

  5

  6

  7

 40
1.0
 41
0.18
 42
0.0625
 43
0.38
 44
0.18
 45
0.0
 46
0.0
 47
0.0
 48
0.0
140
0.18
141
0.09
142
0.0
143
25.4
144
1.0
145
0.0
146
1.0
147
0.09
 71
     0
 72
     0
 73
     1
 74
     1
 75
     0
 76
     0
 77
     0
 78
     0
170
     0
171
     2
172
     0
173
     0
174
     0
175
     0
176
     0
177
     0
178
     0
  0
ENDTAB
  0
ENDSEC
  0
SECTION
  2
BLOCKS
  0
BLOCK
  8
0
  2
$MODEL_SPACE
 70
     0
 10
0.0
 20
0.0
 30
0.0
  3
$MODEL_SPACE
  1

  0
ENDBLK
  5
21
  8
0
  0
BLOCK
 67
     1
  8
0
  2
$PAPER_SPACE
 70
     0
 10
0.0
 20
0.0
 30
0.0
  3
$PAPER_SPACE
  1

  0
ENDBLK
  5
1D
 67
     1
  8
0
  0
ENDSEC
  0
SECTION
  2
ENTITIES
  0
POLYLINE
  5
6F
  8
0
 66
     1
 10
0.0
 20
0.0
 30
0.0
 70
     1
  0
VERTEX
  5
8A
  8
0
 10
0.1249999999999964
 20
40.14318897641
 30
0.0
  0
VERTEX
  5
8B
  8
0
 10
0.125
 20
0.143188976409996
 30
0.0
  0
VERTEX
  5
8C
  8
0
 10
48.125
 20
0.1431889764099996
 30
0.0
  0
VERTEX
  5
8D
  8
0
 10
48.125
 20
40.14318897641
 30
0.0
  0
SEQEND
  5
139
  8
0
  0
POLYLINE
  5
70
  8
0
 66
     1
 10
0.0
 20
0.0
 30
0.0
 70
     1
  0
VERTEX
  5
8E
  8
0
 10
56.67396653524001
 20
0.1431889763800136
 30
0.0
  0
VERTEX
  5
8F
  8
0
 10
56.67396653524001
 20
4.143188976380014
 30
0.0
  0
VERTEX
  5
90
  8
0
 10
52.71074323056416
 20
4.143188976405856
 30
0.0
 42
-1.0
  0
VERTEX
  5
91
  8
0
 10
52.53396653526584
 20
4.319965671704164
 30
0.0
  0
VERTEX
  5
92
  8
0
 10
52.53396653526584
 20
4.716412281105857
 30
0.0
 42
-0.999999999999995
  0
VERTEX
  5
93
  8
0
 10
52.71074323056416
 20
4.893188976404172
 30
0.0
  0
VERTEX
  5
94
  8
0
 10
56.67396653524001
 20
4.893188976380014
 30
0.0
  0
VERTEX
  5
95
  8
0
 10
56.67396653524001
 20
23.51818897638001
 30
0.0
  0
VERTEX
  5
96
  8
0
 10
52.71074323056416
 20
23.51818897640586
 30
0.0
 42
-1.0
  0
VERTEX
  5
97
  8
0
 10
52.53396653526584
 20
23.69496567170417
 30
0.0
  0
VERTEX
  5
98
  8
0
 10
52.53396653526584
 20
24.09141228110586
 30
0.0
 42
-0.4142135623730908
  0
VERTEX
  5
99
  8
0
 10
52.53396653529169
 20
24.26818897642833
 30
0.0
 42
-0.4142135623730965
  0
VERTEX
  5
9A
  8
0
 10
52.71074323056416
 20
24.26818897640417
 30
0.0
  0
VERTEX
  5
9B
  8
0
 10
56.67396653524001
 20
24.26818897638001
 30
0.0
  0
VERTEX
  5
9C
  8
0
 10
56.67396653524001
 20
42.89318897638
 30
0.0
  0
VERTEX
  5
9D
  8
0
 10
52.71074323056417
 20
42.89318897640585
 30
0.0
 42
-0.9999999999999998
  0
VERTEX
  5
9E
  8
0
 10
52.53396653526584
 20
43.06996567170418
 30
0.0
  0
VERTEX
  5
9F
  8
0
 10
52.53396653526584
 20
43.46641228110585
 30
0.0
 42
-0.9999999999999949
  0
VERTEX
  5
A0
  8
0
 10
52.71074323056416
 20
43.64318897640418
 30
0.0
  0
VERTEX
  5
A1
  8
0
 10
56.67396653524001
 20
43.64318897638
 30
0.0
  0
VERTEX
  5
A2
  8
0
 10
56.67396653524001
 20
47.64318897638
 30
0.0
  0
VERTEX
  5
A3
  8
0
 10
48.39271653524001
 20
47.64318897638
 30
0.0
  0
VERTEX
  5
A4
  8
0
 10
48.39271653524001
 20
0.1431889763800136
 30
0.0
  0
SEQEND
  5
13A
  8
0
  0
POLYLINE
  5
71
  8
0
 66
     1
 10
0.0
 20
0.0
 30
0.0
 70
     1
  0
VERTEX
  5
A5
  8
0
 10
48.99427653524001
 20
41.14318897638
 30
0.0
 42
0.4142135623730951
  0
VERTEX
  5
A6
  8
0
 10
49.14271653524001
 20
40.99474897638001
 30
0.0
 42
0.4142135623730951
  0
VERTEX
  5
A7
  8
0
 10
49.29115653524
 20
41.14318897638
 30
0.0
 42
0.4142135623730951
  0
VERTEX
  5
A8
  8
0
 10
49.14271653524001
 20
41.29162897638003
 30
0.0
 42
0.4142135623730951
  0
SEQEND
  5
13B
  8
0
  0
POLYLINE
  5
72
  8
0
 66
     1
 10
0.0
 20
0.0
 30
0.0
 70
     1
  0
VERTEX
  5
A9
  8
0
 10
48.99427653524
 20
6.643188976380014
 30
0.0
 42
0.4142135623730951
  0
VERTEX
  5
AA
  8
0
 10
49.14271653524001
 20
6.494748976380013
 30
0.0
 42
0.4142135623730951
  0
VERTEX
  5
AB
  8
0
 10
49.29115653524
 20
6.643188976380014
 30
0.0
 42
0.4142135623730951
  0
VERTEX
  5
AC
  8
0
 10
49.14271653524001
 20
6.791628976380014
 30
0.0
 42
0.4142135623730951
  0
SEQEND
  5
13C
  8
0
  0
POLYLINE
  5
73
  8
0
 66
     1
 10
0.0
 20
0.0
 30
0.0
 70
     1
  0
VERTEX
  5
AD
  8
0
 10
65.21727362182
 20
0.1431889763800147
 30
0.0
  0
VERTEX
  5
AE
  8
0
 10
65.21727362182
 20
4.143188976380014
 30
0.0
  0
VERTEX
  5
AF
  8
0
 10
61.25405031714416
 20
4.143188976405878
 30
0.0
 42
-1.0
  0
VERTEX
  5
B0
  8
0
 10
61.07727362184584
 20
4.319965671704193
 30
0.0
  0
VERTEX
  5
B1
  8
0
 10
61.07727362184584
 20
4.716412281105858
 30
0.0
 42
-0.999999999999995
  0
VERTEX
  5
B2
  8
0
 10
61.25405031714416
 20
4.893188976404173
 30
0.0
  0
VERTEX
  5
B3
  8
0
 10
65.21727362182
 20
4.893188976380014
 30
0.0
  0
VERTEX
  5
B4
  8
0
 10
65.21727362182
 20
23.51818897638001
 30
0.0
  0
VERTEX
  5
B5
  8
0
 10
61.25405031714416
 20
23.51818897640588
 30
0.0
 42
-1.0
  0
VERTEX
  5
B6
  8
0
 10
61.07727362184584
 20
23.69496567170419
 30
0.0
  0
VERTEX
  5
B7
  8
0
 10
61.07727362184584
 20
24.09141228110586
 30
0.0
 42
-0.4142135623730908
  0
VERTEX
  5
B8
  8
0
 10
61.07727362187168
 20
24.26818897642833
 30
0.0
 42
-0.4142135623730965
  0
VERTEX
  5
B9
  8
0
 10
61.25405031714416
 20
24.26818897640417
 30
0.0
  0
VERTEX
  5
BA
  8
0
 10
65.21727362182
 20
24.26818897638001
 30
0.0
  0
VERTEX
  5
BB
  8
0
 10
65.21727362182
 20
42.89318897638
 30
0.0
  0
VERTEX
  5
BC
  8
0
 10
61.25405031714416
 20
42.89318897640588
 30
0.0
 42
-0.9999999999999998
  0
VERTEX
  5
BD
  8
0
 10
61.07727362184583
 20
43.0699656717042
 30
0.0
  0
VERTEX
  5
BE
  8
0
 10
61.07727362184584
 20
43.46641228110586
 30
0.0
 42
-0.9999999999999949
  0
VERTEX
  5
BF
  8
0
 10
61.25405031714416
 20
43.64318897640418
 30
0.0
  0
VERTEX
  5
C0
  8
0
 10
65.21727362182
 20
43.64318897638
 30
0.0
  0
VERTEX
  5
C1
  8
0
 10
65.21727362182
 20
47.64318897638
 30
0.0
  0
VERTEX
  5
C2
  8
0
 10
56.93602362182001
 20
47.64318897638
 30
0.0
  0
VERTEX
  5
C3
  8
0
 10
56.93602362182001
 20
0.1431889763800147
 30
0.0
  0
SEQEND
  5
13D
  8
0
  0
POLYLINE
  5
74
  8
0
 66
     1
 10
0.0
 20
0.0
 30
0.0
 70
     1
  0
VERTEX
  5
C4
  8
0
 10
57.53758362181999
 20
41.14318897638
 30
0.0
 42
0.4142135623730951
  0
VERTEX
  5
C5
  8
0
 10
57.68602362182001
 20
40.99474897638002
 30
0.0
 42
0.4142135623730951
  0
VERTEX
  5
C6
  8
0
 10
57.83446362182001
 20
41.14318897638
 30
0.0
 42
0.4142135623730951
  0
VERTEX
  5
C7
  8
0
 10
57.68602362182001
 20
41.29162897638004
 30
0.0
 42
0.4142135623730951
  0
SEQEND
  5
13E
  8
0
  0
POLYLINE
  5
75
  8
0
 66
     1
 10
0.0
 20
0.0
 30
0.0
 70
     1
  0
VERTEX
  5
C8
  8
0
 10
57.53758362181999
 20
6.643188976380014
 30
0.0
 42
0.4142135623730951
  0
VERTEX
  5
C9
  8
0
 10
57.68602362182001
 20
6.494748976380021
 30
0.0
 42
0.4142135623730951
  0
VERTEX
  5
CA
  8
0
 10
57.83446362182001
 20
6.643188976380014
 30
0.0
 42
0.4142135623730951
  0
VERTEX
  5
CB
  8
0
 10
57.68602362182001
 20
6.791628976380037
 30
0.0
 42
0.4142135623730951
  0
SEQEND
  5
13F
  8
0
  0
POLYLINE
  5
76
  8
0
 66
     1
 10
0.0
 20
0.0
 30
0.0
 70
     1
  0
VERTEX
  5
CC
  8
0
 10
73.7605807084
 20
0.14318897638003
 30
0.0
  0
VERTEX
  5
CD
  8
0
 10
73.7605807084
 20
4.14318897638003
 30
0.0
  0
VERTEX
  5
CE
  8
0
 10
69.79735740372415
 20
4.143188976405879
 30
0.0
 42
-1.0
  0
VERTEX
  5
CF
  8
0
 10
69.62058070842585
 20
4.31996567170418
 30
0.0
  0
VERTEX
  5
D0
  8
0
 10
69.62058070842585
 20
4.716412281105873
 30
0.0
 42
-0.999999999999995
  0
VERTEX
  5
D1
  8
0
 10
69.79735740372415
 20
4.893188976404188
 30
0.0
  0
VERTEX
  5
D2
  8
0
 10
73.7605807084
 20
4.89318897638003
 30
0.0
  0
VERTEX
  5
D3
  8
0
 10
73.7605807084
 20
23.51818897638003
 30
0.0
  0
VERTEX
  5
D4
  8
0
 10
69.79735740372416
 20
23.51818897640588
 30
0.0
 42
-1.0
  0
VERTEX
  5
D5
  8
0
 10
69.62058070842585
 20
23.69496567170419
 30
0.0
  0
VERTEX
  5
D6
  8
0
 10
69.62058070842585
 20
24.09141228110587
 30
0.0
 42
-0.4142135623730908
  0
VERTEX
  5
D7
  8
0
 10
69.62058070845168
 20
24.26818897642834
 30
0.0
 42
-0.4142135623730965
  0
VERTEX
  5
D8
  8
0
 10
69.79735740372416
 20
24.26818897640419
 30
0.0
  0
VERTEX
  5
D9
  8
0
 10
73.7605807084
 20
24.26818897638003
 30
0.0
  0
VERTEX
  5
DA
  8
0
 10
73.7605807084
 20
42.89318897638003
 30
0.0
  0
VERTEX
  5
DB
  8
0
 10
69.79735740372416
 20
42.89318897640587
 30
0.0
 42
-0.9999999999999998
  0
VERTEX
  5
DC
  8
0
 10
69.62058070842585
 20
43.0699656717042
 30
0.0
  0
VERTEX
  5
DD
  8
0
 10
69.62058070842585
 20
43.46641228110586
 30
0.0
 42
-0.9999999999999949
  0
VERTEX
  5
DE
  8
0
 10
69.79735740372416
 20
43.64318897640419
 30
0.0
  0
VERTEX
  5
DF
  8
0
 10
73.7605807084
 20
43.64318897638003
 30
0.0
  0
VERTEX
  5
E0
  8
0
 10
73.7605807084
 20
47.64318897638
 30
0.0
  0
VERTEX
  5
E1
  8
0
 10
65.4793307084
 20
47.64318897638
 30
0.0
  0
VERTEX
  5
E2
  8
0
 10
65.4793307084
 20
0.14318897638003
 30
0.0
  0
SEQEND
  5
140
  8
0
  0
POLYLINE
  5
77
  8
0
 66
     1
 10
0.0
 20
0.0
 30
0.0
 70
     1
  0
VERTEX
  5
E3
  8
0
 10
66.0808907084
 20
41.14318897638003
 30
0.0
 42
0.4142135623730951
  0
VERTEX
  5
E4
  8
0
 10
66.2293307084
 20
40.99474897638002
 30
0.0
 42
0.4142135623730951
  0
VERTEX
  5
E5
  8
0
 10
66.37777070840002
 20
41.14318897638003
 30
0.0
 42
0.4142135623730951
  0
VERTEX
  5
E6
  8
0
 10
66.2293307084
 20
41.29162897638004
 30
0.0
 42
0.4142135623730951
  0
SEQEND
  5
141
  8
0
  0
POLYLINE
  5
78
  8
0
 66
     1
 10
0.0
 20
0.0
 30
0.0
 70
     1
  0
VERTEX
  5
E7
  8
0
 10
66.0808907084
 20
6.64318897638003
 30
0.0
 42
0.4142135623730951
  0
VERTEX
  5
E8
  8
0
 10
66.2293307084
 20
6.494748976380022
 30
0.0
 42
0.4142135623730951
  0
VERTEX
  5
E9
  8
0
 10
66.37777070840002
 20
6.64318897638003
 30
0.0
 42
0.4142135623730951
  0
VERTEX
  5
EA
  8
0
 10
66.2293307084
 20
6.791628976380037
 30
0.0
 42
0.4142135623730951
  0
SEQEND
  5
142
  8
0
  0
POLYLINE
  5
79
  8
0
 66
     1
 10
0.0
 20
0.0
 30
0.0
 70
     1
  0
VERTEX
  5
EB
  8
0
 10
78.16388779498
 20
35.47428629686001
 30
0.0
  0
VERTEX
  5
EC
  8
0
 10
78.16388779495584
 20
35.07783968748415
 30
0.0
 42
0.99999999999999
  0
VERTEX
  5
ED
  8
0
 10
78.34066449025416
 20
34.90106299218584
 30
0.0
  0
VERTEX
  5
EE
  8
0
 10
82.30388779498
 20
34.90106299216
 30
0.0
  0
VERTEX
  5
EF
  8
0
 10
82.30388779498
 20
20.27606299216
 30
0.0
  0
VERTEX
  5
F0
  8
0
 10
78.34066449025416
 20
20.27606299218415
 30
0.0
 42
1.0
  0
VERTEX
  5
F1
  8
0
 10
78.16388779495584
 20
20.09928629688584
 30
0.0
  0
VERTEX
  5
F2
  8
0
 10
78.16388779495584
 20
19.70283968748415
 30
0.0
 42
1.0
  0
VERTEX
  5
F3
  8
0
 10
78.34066449025416
 20
19.52606299218584
 30
0.0
  0
VERTEX
  5
F4
  8
0
 10
82.30388779498
 20
19.52606299216
 30
0.0
  0
VERTEX
  5
F5
  8
0
 10
82.30388779498
 20
4.901062992159997
 30
0.0
  0
VERTEX
  5
F6
  8
0
 10
78.34066449025416
 20
4.901062992184156
 30
0.0
 42
1.0
  0
VERTEX
  5
F7
  8
0
 10
78.16388779495584
 20
4.724286296885841
 30
0.0
  0
VERTEX
  5
F8
  8
0
 10
78.16388779495584
 20
4.327839687484148
 30
0.0
 42
1.0
  0
VERTEX
  5
F9
  8
0
 10
78.34066449025416
 20
4.151062992185833
 30
0.0
  0
VERTEX
  5
FA
  8
0
 10
82.30388779498
 20
4.151062992159997
 30
0.0
  0
VERTEX
  5
FB
  8
0
 10
82.30388779498
 20
0.1510629921599976
 30
0.0
  0
VERTEX
  5
FC
  8
0
 10
74.02263779498
 20
0.1510629921599976
 30
0.0
  0
VERTEX
  5
FD
  8
0
 10
74.02263779498
 20
39.65106299216
 30
0.0
  0
VERTEX
  5
FE
  8
0
 10
82.30388779498
 20
39.65106299216
 30
0.0
  0
VERTEX
  5
FF
  8
0
 10
82.30388779498
 20
35.65106299216
 30
0.0
  0
VERTEX
  5
100
  8
0
 10
78.34066449025416
 20
35.65106299218416
 30
0.0
 42
1.0
  0
SEQEND
  5
143
  8
0
  0
POLYLINE
  5
7A
  8
0
 66
     1
 10
0.0
 20
0.0
 30
0.0
 70
     1
  0
VERTEX
  5
101
  8
0
 10
81.70232779498
 20
6.901062992159997
 30
0.0
 42
0.4142135623730951
  0
VERTEX
  5
102
  8
0
 10
81.55388779498
 20
7.049502992159991
 30
0.0
 42
0.4142135623730951
  0
VERTEX
  5
103
  8
0
 10
81.40544779498
 20
6.901062992159997
 30
0.0
 42
0.4142135623730951
  0
VERTEX
  5
104
  8
0
 10
81.55388779498
 20
6.752622992160004
 30
0.0
 42
0.4142135623730951
  0
SEQEND
  5
144
  8
0
  0
POLYLINE
  5
7B
  8
0
 66
     1
 10
0.0
 20
0.0
 30
0.0
 70
     1
  0
VERTEX
  5
105
  8
0
 10
81.70232779498
 20
8.901062992159998
 30
0.0
 42
0.4142135623730951
  0
VERTEX
  5
106
  8
0
 10
81.55388779498
 20
9.049502992159992
 30
0.0
 42
0.4142135623730951
  0
VERTEX
  5
107
  8
0
 10
81.40544779497999
 20
8.901062992159998
 30
0.0
 42
0.4142135623730951
  0
VERTEX
  5
108
  8
0
 10
81.55388779498
 20
8.752622992160005
 30
0.0
 42
0.4142135623730951
  0
SEQEND
  5
145
  8
0
  0
POLYLINE
  5
7C
  8
0
 66
     1
 10
0.0
 20
0.0
 30
0.0
 70
     1
  0
VERTEX
  5
109
  8
0
 10
81.70232779498
 20
32.90106299216
 30
0.0
 42
0.4142135623730951
  0
VERTEX
  5
10A
  8
0
 10
81.55388779498
 20
33.04950299215998
 30
0.0
 42
0.4142135623730951
  0
VERTEX
  5
10B
  8
0
 10
81.40544779497999
 20
32.90106299216
 30
0.0
 42
0.4142135623730951
  0
VERTEX
  5
10C
  8
0
 10
81.55388779498
 20
32.75262299216001
 30
0.0
 42
0.4142135623730951
  0
SEQEND
  5
146
  8
0
  0
POLYLINE
  5
7D
  8
0
 66
     1
 10
0.0
 20
0.0
 30
0.0
 70
     1
  0
VERTEX
  5
10D
  8
0
 10
81.70232779498
 20
30.90106299216
 30
0.0
 42
0.4142135623730951
  0
VERTEX
  5
10E
  8
0
 10
81.55388779498
 20
31.04950299215999
 30
0.0
 42
0.4142135623730951
  0
VERTEX
  5
10F
  8
0
 10
81.40544779497999
 20
30.90106299216
 30
0.0
 42
0.4142135623730951
  0
VERTEX
  5
110
  8
0
 10
81.55388779498
 20
30.75262299216001
 30
0.0
 42
0.4142135623730951
  0
SEQEND
  5
147
  8
0
  0
POLYLINE
  5
7E
  8
0
 66
     1
 10
0.0
 20
0.0
 30
0.0
 70
     1
  0
VERTEX
  5
111
  8
0
 10
86.70719488156
 20
35.47428629686001
 30
0.0
  0
VERTEX
  5
112
  8
0
 10
86.70719488153584
 20
35.07783968748417
 30
0.0
 42
0.99999999999999
  0
VERTEX
  5
113
  8
0
 10
86.88397157683416
 20
34.90106299218585
 30
0.0
  0
VERTEX
  5
114
  8
0
 10
90.84719488156
 20
34.90106299216001
 30
0.0
  0
VERTEX
  5
115
  8
0
 10
90.84719488156
 20
20.27606299216001
 30
0.0
  0
VERTEX
  5
116
  8
0
 10
86.88397157683416
 20
20.27606299218416
 30
0.0
 42
1.0
  0
VERTEX
  5
117
  8
0
 10
86.70719488153584
 20
20.09928629688586
 30
0.0
  0
VERTEX
  5
118
  8
0
 10
86.70719488153584
 20
19.70283968748416
 30
0.0
 42
1.0
  0
VERTEX
  5
119
  8
0
 10
86.88397157683416
 20
19.52606299218585
 30
0.0
  0
VERTEX
  5
11A
  8
0
 10
90.84719488156
 20
19.52606299216001
 30
0.0
  0
VERTEX
  5
11B
  8
0
 10
90.84719488156
 20
4.901062992160014
 30
0.0
  0
VERTEX
  5
11C
  8
0
 10
86.88397157683416
 20
4.901062992184173
 30
0.0
 42
1.0
  0
VERTEX
  5
11D
  8
0
 10
86.70719488153584
 20
4.724286296885857
 30
0.0
  0
VERTEX
  5
11E
  8
0
 10
86.70719488153584
 20
4.327839687484165
 30
0.0
 42
1.0
  0
VERTEX
  5
11F
  8
0
 10
86.88397157683416
 20
4.15106299218585
 30
0.0
  0
VERTEX
  5
120
  8
0
 10
90.84719488156
 20
4.151062992160014
 30
0.0
  0
VERTEX
  5
121
  8
0
 10
90.84719488156
 20
0.1510629921600142
 30
0.0
  0
VERTEX
  5
122
  8
0
 10
82.56594488156
 20
0.1510629921600142
 30
0.0
  0
VERTEX
  5
123
  8
0
 10
82.56594488156
 20
39.65106299216001
 30
0.0
  0
VERTEX
  5
124
  8
0
 10
90.84719488156
 20
39.65106299216001
 30
0.0
  0
VERTEX
  5
125
  8
0
 10
90.84719488156
 20
35.65106299216001
 30
0.0
  0
VERTEX
  5
126
  8
0
 10
86.88397157683416
 20
35.65106299218417
 30
0.0
 42
1.0
  0
SEQEND
  5
148
  8
0
  0
POLYLINE
  5
7F
  8
0
 66
     1
 10
0.0
 20
0.0
 30
0.0
 70
     1
  0
VERTEX
  5
127
  8
0
 10
90.24563488156
 20
6.901062992160014
 30
0.0
 42
0.4142135623730951
  0
VERTEX
  5
128
  8
0
 10
90.09719488156
 20
7.049502992160008
 30
0.0
 42
0.4142135623730951
  0
VERTEX
  5
129
  8
0
 10
89.94875488156
 20
6.901062992160014
 30
0.0
 42
0.4142135623730951
  0
VERTEX
  5
12A
  8
0
 10
90.09719488156
 20
6.752622992160006
 30
0.0
 42
0.4142135623730951
  0
SEQEND
  5
149
  8
0
  0
POLYLINE
  5
80
  8
0
 66
     1
 10
0.0
 20
0.0
 30
0.0
 70
     1
  0
VERTEX
  5
12B
  8
0
 10
90.24563488156001
 20
8.901062992160007
 30
0.0
 42
0.4142135623730951
  0
VERTEX
  5
12C
  8
0
 10
90.09719488156
 20
9.049502992160008
 30
0.0
 42
0.4142135623730951
  0
VERTEX
  5
12D
  8
0
 10
89.94875488156
 20
8.901062992160007
 30
0.0
 42
0.4142135623730951
  0
VERTEX
  5
12E
  8
0
 10
90.09719488156
 20
8.752622992160006
 30
0.0
 42
0.4142135623730951
  0
SEQEND
  5
14A
  8
0
  0
POLYLINE
  5
81
  8
0
 66
     1
 10
0.0
 20
0.0
 30
0.0
 70
     1
  0
VERTEX
  5
12F
  8
0
 10
90.24563488156
 20
32.90106299216001
 30
0.0
 42
0.4142135623730951
  0
VERTEX
  5
130
  8
0
 10
90.09719488156
 20
33.04950299216001
 30
0.0
 42
0.4142135623730951
  0
VERTEX
  5
131
  8
0
 10
89.94875488155999
 20
32.90106299216001
 30
0.0
 42
0.4142135623730951
  0
VERTEX
  5
132
  8
0
 10
90.09719488156
 20
32.75262299216001
 30
0.0
 42
0.4142135623730951
  0
SEQEND
  5
14B
  8
0
  0
POLYLINE
  5
82
  8
0
 66
     1
 10
0.0
 20
0.0
 30
0.0
 70
     1
  0
VERTEX
  5
133
  8
0
 10
90.24563488156
 20
30.90106299216001
 30
0.0
 42
0.4142135623730951
  0
VERTEX
  5
134
  8
0
 10
90.09719488156
 20
31.04950299216001
 30
0.0
 42
0.4142135623730951
  0
VERTEX
  5
135
  8
0
 10
89.94875488155999
 20
30.90106299216001
 30
0.0
 42
0.4142135623730951
  0
VERTEX
  5
136
  8
0
 10
90.09719488156
 20
30.75262299216001
 30
0.0
 42
0.4142135623730951
  0
SEQEND
  5
14C
  8
0
  0
ENDSEC
  0
EOF
