  0
SECTION
  2
HEADER
  9
$ACADVER
  1
AC1009
  9
$DWGCODEPAGE
  3
ansi_1252
  9
$INSBASE
 10
0.0
 20
0.0
 30
0.0
  9
$EXTMIN
 10
0.125
 20
0.1431889763799887
 30
0.0
  9
$EXTMAX
 10
86.01254921234002
 20
47.64318897638001
 30
0.0
  9
$LIMMIN
 10
0.0
 20
0.0
  9
$LIMMAX
 10
12.0
 20
9.0
  9
$ORTHOMODE
 70
     0
  9
$REGENMODE
 70
     1
  9
$FILLMODE
 70
     1
  9
$QTEXTMODE
 70
     0
  9
$MIRRTEXT
 70
     1
  9
$DRAGMODE
 70
     2
  9
$LTSCALE
 40
1.0
  9
$OSMODE
 70
    37
  9
$ATTMODE
 70
     1
  9
$TEXTSIZE
 40
0.2
  9
$TRACEWID
 40
0.05
  9
$TEXTSTYLE
  7
STANDARD
  9
$CLAYER
  8
0
  9
$CELTYPE
  6
BYLAYER
  9
$CECOLOR
 62
   256
  9
$DIMSCALE
 40
1.0
  9
$DIMASZ
 40
0.18
  9
$DIMEXO
 40
0.0625
  9
$DIMDLI
 40
0.38
  9
$DIMRND
 40
0.0
  9
$DIMDLE
 40
0.0
  9
$DIMEXE
 40
0.18
  9
$DIMTP
 40
0.0
  9
$DIMTM
 40
0.0
  9
$DIMTXT
 40
0.18
  9
$DIMCEN
 40
0.09
  9
$DIMTSZ
 40
0.0
  9
$DIMTOL
 70
     0
  9
$DIMLIM
 70
     0
  9
$DIMTIH
 70
     1
  9
$DIMTOH
 70
     1
  9
$DIMSE1
 70
     0
  9
$DIMSE2
 70
     0
  9
$DIMTAD
 70
     0
  9
$DIMZIN
 70
     0
  9
$DIMBLK
  1

  9
$DIMASO
 70
     1
  9
$DIMSHO
 70
     1
  9
$DIMPOST
  1

  9
$DIMAPOST
  1

  9
$DIMALT
 70
     0
  9
$DIMALTD
 70
     2
  9
$DIMALTF
 40
25.4
  9
$DIMLFAC
 40
1.0
  9
$DIMTOFL
 70
     0
  9
$DIMTVP
 40
0.0
  9
$DIMTIX
 70
     0
  9
$DIMSOXD
 70
     0
  9
$DIMSAH
 70
     0
  9
$DIMBLK1
  1

  9
$DIMBLK2
  1

  9
$DIMSTYLE
  2
STANDARD
  9
$DIMCLRD
 70
     0
  9
$DIMCLRE
 70
     0
  9
$DIMCLRT
 70
     0
  9
$DIMTFAC
 40
1.0
  9
$DIMGAP
 40
0.09
  9
$LUNITS
 70
     2
  9
$LUPREC
 70
     4
  9
$SKETCHINC
 40
0.1
  9
$FILLETRAD
 40
0.5
  9
$AUNITS
 70
     0
  9
$AUPREC
 70
     0
  9
$MENU
  1
.
  9
$ELEVATION
 40
0.0
  9
$PELEVATION
 40
0.0
  9
$THICKNESS
 40
0.0
  9
$LIMCHECK
 70
     0
  9
$CHAMFERA
 40
0.0
  9
$CHAMFERB
 40
0.0
  9
$SKPOLY
 70
     0
  9
$TDCREATE
 40
2454910.5
  9
$TDUPDATE
 40
2458486.568064201
  9
$TDINDWG
 40
0.0000000116
  9
$TDUSRTIMER
 40
0.0000000116
  9
$USRTIMER
 70
     1
  9
$ANGBASE
 50
0.0
  9
$ANGDIR
 70
     0
  9
$PDMODE
 70
     0
  9
$PDSIZE
 40
0.0
  9
$PLINEWID
 40
0.0
  9
$COORDS
 70
     1
  9
$SPLFRAME
 70
     0
  9
$SPLINETYPE
 70
     6
  9
$SPLINESEGS
 70
     8
  9
$ATTDIA
 70
     0
  9
$ATTREQ
 70
     1
  9
$HANDLING
 70
     1
  9
$HANDSEED
  5
170
  9
$SURFTAB1
 70
     6
  9
$SURFTAB2
 70
     6
  9
$SURFTYPE
 70
     6
  9
$SURFU
 70
     6
  9
$SURFV
 70
     6
  9
$UCSNAME
  2

  9
$UCSORG
 10
0.0
 20
0.0
 30
0.0
  9
$UCSXDIR
 10
1.0
 20
0.0
 30
0.0
  9
$UCSYDIR
 10
0.0
 20
1.0
 30
0.0
  9
$PUCSNAME
  2

  9
$PUCSORG
 10
0.0
 20
0.0
 30
0.0
  9
$PUCSXDIR
 10
1.0
 20
0.0
 30
0.0
  9
$PUCSYDIR
 10
0.0
 20
1.0
 30
0.0
  9
$USERI1
 70
     0
  9
$USERI2
 70
     0
  9
$USERI3
 70
     0
  9
$USERI4
 70
     0
  9
$USERI5
 70
     0
  9
$USERR1
 40
0.0
  9
$USERR2
 40
0.0
  9
$USERR3
 40
0.0
  9
$USERR4
 40
0.0
  9
$USERR5
 40
0.0
  9
$WORLDVIEW
 70
     1
  9
$SHADEDGE
 70
     3
  9
$SHADEDIF
 70
    70
  9
$TILEMODE
 70
     1
  9
$MAXACTVP
 70
    64
  9
$PLIMCHECK
 70
     0
  9
$PEXTMIN
 10
1.000000000000000E+20
 20
1.000000000000000E+20
 30
1.000000000000000E+20
  9
$PEXTMAX
 10
-1.000000000000000E+20
 20
-1.000000000000000E+20
 30
-1.000000000000000E+20
  9
$PLIMMIN
 10
0.0
 20
0.0
  9
$PLIMMAX
 10
12.0
 20
9.0
  9
$UNITMODE
 70
     0
  9
$VISRETAIN
 70
     1
  9
$PLINEGEN
 70
     0
  9
$PSLTSCALE
 70
     1
  0
ENDSEC
  0
SECTION
  2
TABLES
  0
TABLE
  2
VPORT
 70
     1
  0
VPORT
  2
*ACTIVE
 70
     0
 10
0.0
 20
0.0
 11
1.0
 21
1.0
 12
10.42990654205607
 22
4.5
 13
0.0
 23
0.0
 14
0.5
 24
0.5
 15
0.5
 25
0.5
 16
0.0
 26
0.0
 36
1.0
 17
0.0
 27
0.0
 37
0.0
 40
9.0
 41
1.972972972850329
 42
50.0
 43
0.0
 44
0.0
 50
0.0
 51
0.0
 71
     0
 72
   100
 73
     1
 74
     3
 75
     0
 76
     0
 77
     0
 78
     0
  0
ENDTAB
  0
TABLE
  2
LTYPE
 70
     2
  0
LTYPE
  2
CONTINUOUS
 70
     0
  3
Solid line
 72
    65
 73
     0
 40
0.0
  0
LTYPE
  2
CONTINUOUS2
 70
     0
  3
Solid Line
 72
    65
 73
     0
 40
0.0
  0
ENDTAB
  0
TABLE
  2
LAYER
 70
     1
  0
LAYER
  2
0
 70
     0
 62
     7
  6
CONTINUOUS
  0
ENDTAB
  0
TABLE
  2
STYLE
 70
     1
  0
STYLE
  2
STANDARD
 70
     0
 40
0.0
 41
1.0
 50
0.0
 71
     0
 42
0.2
  3
txt
  4

  0
ENDTAB
  0
TABLE
  2
VIEW
 70
     0
  0
ENDTAB
  0
TABLE
  2
UCS
 70
     0
  0
ENDTAB
  0
TABLE
  2
APPID
 70
     1
  0
APPID
  2
ACAD
 70
     0
  0
ENDTAB
  0
TABLE
  2
DIMSTYLE
 70
     1
  0
DIMSTYLE
  2
STANDARD
 70
     0
  3

  4

  5

  6

  7

 40
1.0
 41
0.18
 42
0.0625
 43
0.38
 44
0.18
 45
0.0
 46
0.0
 47
0.0
 48
0.0
140
0.18
141
0.09
142
0.0
143
25.4
144
1.0
145
0.0
146
1.0
147
0.09
 71
     0
 72
     0
 73
     1
 74
     1
 75
     0
 76
     0
 77
     0
 78
     0
170
     0
171
     2
172
     0
173
     0
174
     0
175
     0
176
     0
177
     0
178
     0
  0
ENDTAB
  0
ENDSEC
  0
SECTION
  2
BLOCKS
  0
BLOCK
  8
0
  2
$MODEL_SPACE
 70
     0
 10
0.0
 20
0.0
 30
0.0
  3
$MODEL_SPACE
  1

  0
ENDBLK
  5
21
  8
0
  0
BLOCK
 67
     1
  8
0
  2
$PAPER_SPACE
 70
     0
 10
0.0
 20
0.0
 30
0.0
  3
$PAPER_SPACE
  1

  0
ENDBLK
  5
1D
 67
     1
  8
0
  0
ENDSEC
  0
SECTION
  2
ENTITIES
  0
POLYLINE
  5
6F
  8
0
 66
     1
 10
0.0
 20
0.0
 30
0.0
 70
     1
  0
VERTEX
  5
92
  8
0
 10
0.125
 20
47.64318897638
 30
0.0
  0
VERTEX
  5
93
  8
0
 10
0.125
 20
0.1431889763800029
 30
0.0
  0
VERTEX
  5
94
  8
0
 10
21.40625
 20
0.1431889763800029
 30
0.0
  0
VERTEX
  5
95
  8
0
 10
21.40625
 20
4.143188976380003
 30
0.0
  0
VERTEX
  5
96
  8
0
 10
10.94302669527416
 20
4.143188976405838
 30
0.0
 42
-0.4142135623730847
  0
VERTEX
  5
97
  8
0
 10
10.76624999995168
 20
4.143188976431702
 30
0.0
 42
-0.4142135623730962
  0
VERTEX
  5
98
  8
0
 10
10.76624999997584
 20
4.319965671704153
 30
0.0
  0
VERTEX
  5
99
  8
0
 10
10.76624999997706
 20
4.715936121088873
 30
0.0
 42
-0.9999999999999925
  0
VERTEX
  5
9A
  8
0
 10
10.93884589887294
 20
4.893188976421129
 30
0.0
  0
VERTEX
  5
9B
  8
0
 10
21.40625
 20
4.893188976380003
 30
0.0
  0
VERTEX
  5
9C
  8
0
 10
21.40625
 20
23.51818897638
 30
0.0
  0
VERTEX
  5
9D
  8
0
 10
10.94302669527416
 20
23.51818897640584
 30
0.0
 42
-0.4142135623730958
  0
VERTEX
  5
9E
  8
0
 10
10.76624999995168
 20
23.5181889764317
 30
0.0
 42
-0.4142135623730983
  0
VERTEX
  5
9F
  8
0
 10
10.76624999997584
 20
23.69496567170415
 30
0.0
  0
VERTEX
  5
A0
  8
0
 10
10.76624999997584
 20
24.09141228110585
 30
0.0
 42
-1.0
  0
VERTEX
  5
A1
  8
0
 10
10.94302669527416
 20
24.26818897640416
 30
0.0
  0
VERTEX
  5
A2
  8
0
 10
21.40625
 20
24.26818897638
 30
0.0
  0
VERTEX
  5
A3
  8
0
 10
21.40625
 20
42.89318897638
 30
0.0
  0
VERTEX
  5
A4
  8
0
 10
10.9430208102745
 20
42.89318897640905
 30
0.0
 42
-0.9918734904649581
  0
VERTEX
  5
A5
  8
0
 10
10.76625002388415
 20
43.06995981100633
 30
0.0
  0
VERTEX
  5
A6
  8
0
 10
10.76624999997584
 20
43.46641228110585
 30
0.0
 42
-0.9999999999999998
  0
VERTEX
  5
A7
  8
0
 10
10.94302669527416
 20
43.64318897640416
 30
0.0
  0
VERTEX
  5
A8
  8
0
 10
21.40625
 20
43.64318897638
 30
0.0
  0
VERTEX
  5
A9
  8
0
 10
21.40625
 20
47.64318897638
 30
0.0
  0
SEQEND
  5
154
  8
0
  0
POLYLINE
  5
70
  8
0
 66
     1
 10
0.0
 20
0.0
 30
0.0
 70
     1
  0
VERTEX
  5
AA
  8
0
 10
1.023440000000008
 20
6.861938976380003
 30
0.0
 42
0.4142135623730951
  0
VERTEX
  5
AB
  8
0
 10
0.875
 20
7.010378976380025
 30
0.0
 42
0.4142135623730951
  0
VERTEX
  5
AC
  8
0
 10
0.7265600000000063
 20
6.861938976380003
 30
0.0
 42
0.4142135623730951
  0
VERTEX
  5
AD
  8
0
 10
0.875
 20
6.713498976380009
 30
0.0
 42
0.4142135623730951
  0
SEQEND
  5
155
  8
0
  0
POLYLINE
  5
71
  8
0
 66
     1
 10
0.0
 20
0.0
 30
0.0
 70
     1
  0
VERTEX
  5
AE
  8
0
 10
1.023440000000008
 20
8.861938976380003
 30
0.0
 42
0.4142135623730951
  0
VERTEX
  5
AF
  8
0
 10
0.875
 20
9.010378976380025
 30
0.0
 42
0.4142135623730951
  0
VERTEX
  5
B0
  8
0
 10
0.7265600000000063
 20
8.861938976380003
 30
0.0
 42
0.4142135623730951
  0
VERTEX
  5
B1
  8
0
 10
0.875
 20
8.71349897638001
 30
0.0
 42
0.4142135623730951
  0
SEQEND
  5
156
  8
0
  0
POLYLINE
  5
72
  8
0
 66
     1
 10
0.0
 20
0.0
 30
0.0
 70
     1
  0
VERTEX
  5
B2
  8
0
 10
20.8040611051
 20
6.643188976380003
 30
0.0
 42
0.4142135623730951
  0
VERTEX
  5
B3
  8
0
 10
20.6556211051
 20
6.791628976380025
 30
0.0
 42
0.4142135623730951
  0
VERTEX
  5
B4
  8
0
 10
20.5071811051
 20
6.643188976380003
 30
0.0
 42
0.4142135623730951
  0
VERTEX
  5
B5
  8
0
 10
20.6556211051
 20
6.494748976380009
 30
0.0
 42
0.4142135623730951
  0
SEQEND
  5
157
  8
0
  0
POLYLINE
  5
73
  8
0
 66
     1
 10
0.0
 20
0.0
 30
0.0
 70
     1
  0
VERTEX
  5
B6
  8
0
 10
20.80468999999999
 20
41.14318897638
 30
0.0
 42
0.4142135623730951
  0
VERTEX
  5
B7
  8
0
 10
20.65625
 20
41.29162897638
 30
0.0
 42
0.4142135623730951
  0
VERTEX
  5
B8
  8
0
 10
20.50780999999999
 20
41.14318897638
 30
0.0
 42
0.4142135623730951
  0
VERTEX
  5
B9
  8
0
 10
20.65625
 20
40.99474897638001
 30
0.0
 42
0.4142135623730951
  0
SEQEND
  5
158
  8
0
  0
POLYLINE
  5
74
  8
0
 66
     1
 10
0.0
 20
0.0
 30
0.0
 70
     1
  0
VERTEX
  5
BA
  8
0
 10
1.023439999999994
 20
40.92443897638
 30
0.0
 42
0.4142135623730951
  0
VERTEX
  5
BB
  8
0
 10
0.875
 20
41.07287897638
 30
0.0
 42
0.4142135623730951
  0
VERTEX
  5
BC
  8
0
 10
0.7265600000000063
 20
40.92443897638
 30
0.0
 42
0.4142135623730951
  0
VERTEX
  5
BD
  8
0
 10
0.875
 20
40.77599897638001
 30
0.0
 42
0.4142135623730951
  0
SEQEND
  5
159
  8
0
  0
POLYLINE
  5
75
  8
0
 66
     1
 10
0.0
 20
0.0
 30
0.0
 70
     1
  0
VERTEX
  5
BE
  8
0
 10
1.023439999999994
 20
38.92443897638
 30
0.0
 42
0.4142135623730951
  0
VERTEX
  5
BF
  8
0
 10
0.875
 20
39.07287897638002
 30
0.0
 42
0.4142135623730951
  0
VERTEX
  5
C0
  8
0
 10
0.7265599999999921
 20
38.92443897638
 30
0.0
 42
0.4142135623730951
  0
VERTEX
  5
C1
  8
0
 10
0.875
 20
38.77599897638001
 30
0.0
 42
0.4142135623730951
  0
SEQEND
  5
15A
  8
0
  0
POLYLINE
  5
76
  8
0
 66
     1
 10
0.0
 20
0.0
 30
0.0
 70
     1
  0
VERTEX
  5
C2
  8
0
 10
21.66043307077999
 20
47.64318897638
 30
0.0
  0
VERTEX
  5
C3
  8
0
 10
21.66043307078
 20
0.14318897638001
 30
0.0
  0
VERTEX
  5
C4
  8
0
 10
42.94168307077999
 20
0.14318897638001
 30
0.0
  0
VERTEX
  5
C5
  8
0
 10
42.94168307077999
 20
4.14318897638001
 30
0.0
  0
VERTEX
  5
C6
  8
0
 10
32.47845976605416
 20
4.143188976405845
 30
0.0
 42
-0.4142135623730847
  0
VERTEX
  5
C7
  8
0
 10
32.30168307073168
 20
4.143188976431695
 30
0.0
 42
-0.4142135623730962
  0
VERTEX
  5
C8
  8
0
 10
32.30168307075583
 20
4.319965671704175
 30
0.0
  0
VERTEX
  5
C9
  8
0
 10
32.30168307075707
 20
4.715936121088895
 30
0.0
 42
-0.9999999999999925
  0
VERTEX
  5
CA
  8
0
 10
32.47427896965293
 20
4.893188976421136
 30
0.0
  0
VERTEX
  5
CB
  8
0
 10
42.94168307077999
 20
4.89318897638001
 30
0.0
  0
VERTEX
  5
CC
  8
0
 10
42.94168307077999
 20
23.51818897638001
 30
0.0
  0
VERTEX
  5
CD
  8
0
 10
32.47845976605416
 20
23.51818897640584
 30
0.0
 42
-0.4142135623730958
  0
VERTEX
  5
CE
  8
0
 10
32.30168307073168
 20
23.51818897643169
 30
0.0
 42
-0.4142135623730983
  0
VERTEX
  5
CF
  8
0
 10
32.30168307075583
 20
23.69496567170417
 30
0.0
  0
VERTEX
  5
D0
  8
0
 10
32.30168307075583
 20
24.09141228110585
 30
0.0
 42
-1.0
  0
VERTEX
  5
D1
  8
0
 10
32.47845976605416
 20
24.26818897640418
 30
0.0
  0
VERTEX
  5
D2
  8
0
 10
42.94168307077999
 20
24.26818897638001
 30
0.0
  0
VERTEX
  5
D3
  8
0
 10
42.94168307077999
 20
42.89318897638
 30
0.0
  0
VERTEX
  5
D4
  8
0
 10
32.4784538810545
 20
42.89318897640906
 30
0.0
 42
-0.9918734904649581
  0
VERTEX
  5
D5
  8
0
 10
32.30168309466415
 20
43.06995981100633
 30
0.0
  0
VERTEX
  5
D6
  8
0
 10
32.30168307075583
 20
43.46641228110585
 30
0.0
 42
-0.9999999999999998
  0
VERTEX
  5
D7
  8
0
 10
32.47845976605415
 20
43.64318897640416
 30
0.0
  0
VERTEX
  5
D8
  8
0
 10
42.94168307077999
 20
43.64318897638
 30
0.0
  0
VERTEX
  5
D9
  8
0
 10
42.94168307077999
 20
47.64318897638
 30
0.0
  0
SEQEND
  5
15B
  8
0
  0
POLYLINE
  5
77
  8
0
 66
     1
 10
0.0
 20
0.0
 30
0.0
 70
     1
  0
VERTEX
  5
DA
  8
0
 10
22.55887307078
 20
6.86193897638001
 30
0.0
 42
0.4142135623730951
  0
VERTEX
  5
DB
  8
0
 10
22.41043307078
 20
7.010378976380018
 30
0.0
 42
0.4142135623730951
  0
VERTEX
  5
DC
  8
0
 10
22.26199307078
 20
6.86193897638001
 30
0.0
 42
0.4142135623730951
  0
VERTEX
  5
DD
  8
0
 10
22.41043307078
 20
6.713498976380016
 30
0.0
 42
0.4142135623730951
  0
SEQEND
  5
15C
  8
0
  0
POLYLINE
  5
78
  8
0
 66
     1
 10
0.0
 20
0.0
 30
0.0
 70
     1
  0
VERTEX
  5
DE
  8
0
 10
22.55887307078
 20
8.86193897638001
 30
0.0
 42
0.4142135623730951
  0
VERTEX
  5
DF
  8
0
 10
22.41043307078
 20
9.010378976380018
 30
0.0
 42
0.4142135623730951
  0
VERTEX
  5
E0
  8
0
 10
22.26199307078
 20
8.86193897638001
 30
0.0
 42
0.4142135623730951
  0
VERTEX
  5
E1
  8
0
 10
22.41043307078
 20
8.713498976380016
 30
0.0
 42
0.4142135623730951
  0
SEQEND
  5
15D
  8
0
  0
POLYLINE
  5
79
  8
0
 66
     1
 10
0.0
 20
0.0
 30
0.0
 70
     1
  0
VERTEX
  5
E2
  8
0
 10
42.33949417588
 20
6.64318897638001
 30
0.0
 42
0.4142135623730951
  0
VERTEX
  5
E3
  8
0
 10
42.19105417588001
 20
6.791628976380018
 30
0.0
 42
0.4142135623730951
  0
VERTEX
  5
E4
  8
0
 10
42.04261417588
 20
6.64318897638001
 30
0.0
 42
0.4142135623730951
  0
VERTEX
  5
E5
  8
0
 10
42.19105417588001
 20
6.494748976380016
 30
0.0
 42
0.4142135623730951
  0
SEQEND
  5
15E
  8
0
  0
POLYLINE
  5
7A
  8
0
 66
     1
 10
0.0
 20
0.0
 30
0.0
 70
     1
  0
VERTEX
  5
E6
  8
0
 10
42.34012307077999
 20
41.14318897638
 30
0.0
 42
0.4142135623730951
  0
VERTEX
  5
E7
  8
0
 10
42.19168307077999
 20
41.29162897638
 30
0.0
 42
0.4142135623730951
  0
VERTEX
  5
E8
  8
0
 10
42.04324307078
 20
41.14318897638
 30
0.0
 42
0.4142135623730951
  0
VERTEX
  5
E9
  8
0
 10
42.19168307077999
 20
40.99474897638001
 30
0.0
 42
0.4142135623730951
  0
SEQEND
  5
15F
  8
0
  0
POLYLINE
  5
7B
  8
0
 66
     1
 10
0.0
 20
0.0
 30
0.0
 70
     1
  0
VERTEX
  5
EA
  8
0
 10
22.55887307077999
 20
40.92443897638
 30
0.0
 42
0.4142135623730951
  0
VERTEX
  5
EB
  8
0
 10
22.41043307077999
 20
41.07287897638
 30
0.0
 42
0.4142135623730951
  0
VERTEX
  5
EC
  8
0
 10
22.26199307078
 20
40.92443897638
 30
0.0
 42
0.4142135623730951
  0
VERTEX
  5
ED
  8
0
 10
22.41043307077999
 20
40.77599897638001
 30
0.0
 42
0.4142135623730951
  0
SEQEND
  5
160
  8
0
  0
POLYLINE
  5
7C
  8
0
 66
     1
 10
0.0
 20
0.0
 30
0.0
 70
     1
  0
VERTEX
  5
EE
  8
0
 10
22.55887307078
 20
38.92443897638
 30
0.0
 42
0.4142135623730951
  0
VERTEX
  5
EF
  8
0
 10
22.41043307077999
 20
39.07287897638003
 30
0.0
 42
0.4142135623730951
  0
VERTEX
  5
F0
  8
0
 10
22.26199307078
 20
38.92443897638
 30
0.0
 42
0.4142135623730951
  0
VERTEX
  5
F1
  8
0
 10
22.41043307077999
 20
38.77599897638001
 30
0.0
 42
0.4142135623730951
  0
SEQEND
  5
161
  8
0
  0
POLYLINE
  5
7D
  8
0
 66
     1
 10
0.0
 20
0.0
 30
0.0
 70
     1
  0
VERTEX
  5
F2
  8
0
 10
43.19586614156
 20
47.64318897638001
 30
0.0
  0
VERTEX
  5
F3
  8
0
 10
43.19586614156
 20
0.14318897638001
 30
0.0
  0
VERTEX
  5
F4
  8
0
 10
64.47711614156
 20
0.14318897638001
 30
0.0
  0
VERTEX
  5
F5
  8
0
 10
64.47711614156
 20
4.14318897638001
 30
0.0
  0
VERTEX
  5
F6
  8
0
 10
54.01389283683417
 20
4.143188976405845
 30
0.0
 42
-0.4142135623730847
  0
VERTEX
  5
F7
  8
0
 10
53.83711614151169
 20
4.143188976431695
 30
0.0
 42
-0.4142135623730962
  0
VERTEX
  5
F8
  8
0
 10
53.83711614153585
 20
4.319965671704175
 30
0.0
  0
VERTEX
  5
F9
  8
0
 10
53.83711614153708
 20
4.715936121088895
 30
0.0
 42
-0.9999999999999925
  0
VERTEX
  5
FA
  8
0
 10
54.00971204043294
 20
4.893188976421136
 30
0.0
  0
VERTEX
  5
FB
  8
0
 10
64.47711614156
 20
4.89318897638001
 30
0.0
  0
VERTEX
  5
FC
  8
0
 10
64.47711614156
 20
23.51818897638001
 30
0.0
  0
VERTEX
  5
FD
  8
0
 10
54.01389283683417
 20
23.51818897640585
 30
0.0
 42
-0.4142135623730958
  0
VERTEX
  5
FE
  8
0
 10
53.83711614151169
 20
23.51818897643169
 30
0.0
 42
-0.4142135623730983
  0
VERTEX
  5
FF
  8
0
 10
53.83711614153585
 20
23.69496567170417
 30
0.0
  0
VERTEX
  5
100
  8
0
 10
53.83711614153585
 20
24.09141228110585
 30
0.0
 42
-1.0
  0
VERTEX
  5
101
  8
0
 10
54.01389283683417
 20
24.26818897640417
 30
0.0
  0
VERTEX
  5
102
  8
0
 10
64.47711614156
 20
24.26818897638001
 30
0.0
  0
VERTEX
  5
103
  8
0
 10
64.47711614156
 20
42.89318897638001
 30
0.0
  0
VERTEX
  5
104
  8
0
 10
54.01388695183451
 20
42.89318897640906
 30
0.0
 42
-0.9918734904649581
  0
VERTEX
  5
105
  8
0
 10
53.83711616544417
 20
43.06995981100633
 30
0.0
  0
VERTEX
  5
106
  8
0
 10
53.83711614153585
 20
43.46641228110585
 30
0.0
 42
-0.9999999999999998
  0
VERTEX
  5
107
  8
0
 10
54.01389283683417
 20
43.64318897640417
 30
0.0
  0
VERTEX
  5
108
  8
0
 10
64.47711614156
 20
43.64318897638001
 30
0.0
  0
VERTEX
  5
109
  8
0
 10
64.47711614156
 20
47.64318897638001
 30
0.0
  0
SEQEND
  5
162
  8
0
  0
POLYLINE
  5
7E
  8
0
 66
     1
 10
0.0
 20
0.0
 30
0.0
 70
     1
  0
VERTEX
  5
10A
  8
0
 10
44.09430614156001
 20
6.86193897638001
 30
0.0
 42
0.4142135623730951
  0
VERTEX
  5
10B
  8
0
 10
43.94586614156
 20
7.010378976380018
 30
0.0
 42
0.4142135623730951
  0
VERTEX
  5
10C
  8
0
 10
43.79742614156001
 20
6.86193897638001
 30
0.0
 42
0.4142135623730951
  0
VERTEX
  5
10D
  8
0
 10
43.94586614156
 20
6.713498976380016
 30
0.0
 42
0.4142135623730951
  0
SEQEND
  5
163
  8
0
  0
POLYLINE
  5
7F
  8
0
 66
     1
 10
0.0
 20
0.0
 30
0.0
 70
     1
  0
VERTEX
  5
10E
  8
0
 10
44.09430614156001
 20
8.86193897638001
 30
0.0
 42
0.4142135623730951
  0
VERTEX
  5
10F
  8
0
 10
43.94586614156
 20
9.010378976380018
 30
0.0
 42
0.4142135623730951
  0
VERTEX
  5
110
  8
0
 10
43.79742614156001
 20
8.86193897638001
 30
0.0
 42
0.4142135623730951
  0
VERTEX
  5
111
  8
0
 10
43.94586614156
 20
8.713498976380016
 30
0.0
 42
0.4142135623730951
  0
SEQEND
  5
164
  8
0
  0
POLYLINE
  5
80
  8
0
 66
     1
 10
0.0
 20
0.0
 30
0.0
 70
     1
  0
VERTEX
  5
112
  8
0
 10
63.87492724666001
 20
6.64318897638001
 30
0.0
 42
0.4142135623730951
  0
VERTEX
  5
113
  8
0
 10
63.72648724666001
 20
6.791628976380018
 30
0.0
 42
0.4142135623730951
  0
VERTEX
  5
114
  8
0
 10
63.57804724666001
 20
6.64318897638001
 30
0.0
 42
0.4142135623730951
  0
VERTEX
  5
115
  8
0
 10
63.72648724666001
 20
6.494748976380016
 30
0.0
 42
0.4142135623730951
  0
SEQEND
  5
165
  8
0
  0
POLYLINE
  5
81
  8
0
 66
     1
 10
0.0
 20
0.0
 30
0.0
 70
     1
  0
VERTEX
  5
116
  8
0
 10
63.87555614156001
 20
41.14318897638001
 30
0.0
 42
0.4142135623730951
  0
VERTEX
  5
117
  8
0
 10
63.72711614156001
 20
41.29162897638001
 30
0.0
 42
0.4142135623730951
  0
VERTEX
  5
118
  8
0
 10
63.57867614156001
 20
41.14318897638001
 30
0.0
 42
0.4142135623730951
  0
VERTEX
  5
119
  8
0
 10
63.72711614156001
 20
40.99474897638001
 30
0.0
 42
0.4142135623730951
  0
SEQEND
  5
166
  8
0
  0
POLYLINE
  5
82
  8
0
 66
     1
 10
0.0
 20
0.0
 30
0.0
 70
     1
  0
VERTEX
  5
11A
  8
0
 10
44.09430614156001
 20
40.92443897638001
 30
0.0
 42
0.4142135623730951
  0
VERTEX
  5
11B
  8
0
 10
43.94586614156
 20
41.07287897638001
 30
0.0
 42
0.4142135623730951
  0
VERTEX
  5
11C
  8
0
 10
43.79742614156001
 20
40.92443897638001
 30
0.0
 42
0.4142135623730951
  0
VERTEX
  5
11D
  8
0
 10
43.94586614156
 20
40.77599897638001
 30
0.0
 42
0.4142135623730951
  0
SEQEND
  5
167
  8
0
  0
POLYLINE
  5
83
  8
0
 66
     1
 10
0.0
 20
0.0
 30
0.0
 70
     1
  0
VERTEX
  5
11E
  8
0
 10
44.09430614156001
 20
38.92443897638001
 30
0.0
 42
0.4142135623730951
  0
VERTEX
  5
11F
  8
0
 10
43.94586614156
 20
39.07287897638002
 30
0.0
 42
0.4142135623730951
  0
VERTEX
  5
120
  8
0
 10
43.79742614156001
 20
38.92443897638001
 30
0.0
 42
0.4142135623730951
  0
VERTEX
  5
121
  8
0
 10
43.94586614156
 20
38.77599897638001
 30
0.0
 42
0.4142135623730951
  0
SEQEND
  5
168
  8
0
  0
POLYLINE
  5
84
  8
0
 66
     1
 10
0.0
 20
0.0
 30
0.0
 70
     1
  0
VERTEX
  5
122
  8
0
 10
64.73129921234
 20
47.64318897637998
 30
0.0
  0
VERTEX
  5
123
  8
0
 10
64.73129921234
 20
0.1431889763799887
 30
0.0
  0
VERTEX
  5
124
  8
0
 10
86.01254921234002
 20
0.1431889763799887
 30
0.0
  0
VERTEX
  5
125
  8
0
 10
86.01254921234002
 20
4.143188976379989
 30
0.0
  0
VERTEX
  5
126
  8
0
 10
75.54932590761416
 20
4.143188976405824
 30
0.0
 42
-0.4142135623730847
  0
VERTEX
  5
127
  8
0
 10
75.37254921229169
 20
4.143188976431674
 30
0.0
 42
-0.4142135623730962
  0
VERTEX
  5
128
  8
0
 10
75.37254921231585
 20
4.319965671704153
 30
0.0
  0
VERTEX
  5
129
  8
0
 10
75.37254921231707
 20
4.715936121088873
 30
0.0
 42
-0.9999999999999925
  0
VERTEX
  5
12A
  8
0
 10
75.54514511121295
 20
4.893188976421115
 30
0.0
  0
VERTEX
  5
12B
  8
0
 10
86.01254921234002
 20
4.893188976379989
 30
0.0
  0
VERTEX
  5
12C
  8
0
 10
86.01254921234
 20
23.51818897637999
 30
0.0
  0
VERTEX
  5
12D
  8
0
 10
75.54932590761416
 20
23.51818897640583
 30
0.0
 42
-0.4142135623730958
  0
VERTEX
  5
12E
  8
0
 10
75.37254921229169
 20
23.51818897643167
 30
0.0
 42
-0.4142135623730983
  0
VERTEX
  5
12F
  8
0
 10
75.37254921231585
 20
23.69496567170415
 30
0.0
  0
VERTEX
  5
130
  8
0
 10
75.37254921231585
 20
24.09141228110582
 30
0.0
 42
-1.0
  0
VERTEX
  5
131
  8
0
 10
75.54932590761416
 20
24.26818897640415
 30
0.0
  0
VERTEX
  5
132
  8
0
 10
86.01254921234
 20
24.26818897637999
 30
0.0
  0
VERTEX
  5
133
  8
0
 10
86.01254921234
 20
42.89318897637998
 30
0.0
  0
VERTEX
  5
134
  8
0
 10
75.54932002261451
 20
42.89318897640904
 30
0.0
 42
-0.9918734904649581
  0
VERTEX
  5
135
  8
0
 10
75.37254923622416
 20
43.06995981100631
 30
0.0
  0
VERTEX
  5
136
  8
0
 10
75.37254921231585
 20
43.46641228110582
 30
0.0
 42
-0.9999999999999998
  0
VERTEX
  5
137
  8
0
 10
75.54932590761416
 20
43.64318897640414
 30
0.0
  0
VERTEX
  5
138
  8
0
 10
86.01254921234
 20
43.64318897638001
 30
0.0
  0
VERTEX
  5
139
  8
0
 10
86.01254921234
 20
47.64318897638001
 30
0.0
  0
SEQEND
  5
169
  8
0
  0
POLYLINE
  5
85
  8
0
 66
     1
 10
0.0
 20
0.0
 30
0.0
 70
     1
  0
VERTEX
  5
13A
  8
0
 10
65.62973921234001
 20
6.861938976379989
 30
0.0
 42
0.4142135623730951
  0
VERTEX
  5
13B
  8
0
 10
65.48129921234
 20
7.010378976379997
 30
0.0
 42
0.4142135623730951
  0
VERTEX
  5
13C
  8
0
 10
65.33285921234001
 20
6.861938976379989
 30
0.0
 42
0.4142135623730951
  0
VERTEX
  5
13D
  8
0
 10
65.48129921234
 20
6.713498976379995
 30
0.0
 42
0.4142135623730951
  0
SEQEND
  5
16A
  8
0
  0
POLYLINE
  5
86
  8
0
 66
     1
 10
0.0
 20
0.0
 30
0.0
 70
     1
  0
VERTEX
  5
13E
  8
0
 10
65.62973921234001
 20
8.861938976379989
 30
0.0
 42
0.4142135623730951
  0
VERTEX
  5
13F
  8
0
 10
65.48129921234
 20
9.010378976379997
 30
0.0
 42
0.4142135623730951
  0
VERTEX
  5
140
  8
0
 10
65.33285921234001
 20
8.861938976379989
 30
0.0
 42
0.4142135623730951
  0
VERTEX
  5
141
  8
0
 10
65.48129921234
 20
8.713498976379995
 30
0.0
 42
0.4142135623730951
  0
SEQEND
  5
16B
  8
0
  0
POLYLINE
  5
87
  8
0
 66
     1
 10
0.0
 20
0.0
 30
0.0
 70
     1
  0
VERTEX
  5
142
  8
0
 10
85.41036031744001
 20
6.643188976379989
 30
0.0
 42
0.4142135623730951
  0
VERTEX
  5
143
  8
0
 10
85.26192031744
 20
6.791628976379997
 30
0.0
 42
0.4142135623730951
  0
VERTEX
  5
144
  8
0
 10
85.11348031744001
 20
6.643188976379989
 30
0.0
 42
0.4142135623730951
  0
VERTEX
  5
145
  8
0
 10
85.26192031744
 20
6.494748976379995
 30
0.0
 42
0.4142135623730951
  0
SEQEND
  5
16C
  8
0
  0
POLYLINE
  5
88
  8
0
 66
     1
 10
0.0
 20
0.0
 30
0.0
 70
     1
  0
VERTEX
  5
146
  8
0
 10
85.41098921234
 20
41.14318897637998
 30
0.0
 42
0.4142135623730951
  0
VERTEX
  5
147
  8
0
 10
85.26254921234
 20
41.29162897637999
 30
0.0
 42
0.4142135623730951
  0
VERTEX
  5
148
  8
0
 10
85.11410921234
 20
41.14318897637998
 30
0.0
 42
0.4142135623730951
  0
VERTEX
  5
149
  8
0
 10
85.26254921234
 20
40.99474897637999
 30
0.0
 42
0.4142135623730951
  0
SEQEND
  5
16D
  8
0
  0
POLYLINE
  5
89
  8
0
 66
     1
 10
0.0
 20
0.0
 30
0.0
 70
     1
  0
VERTEX
  5
14A
  8
0
 10
65.62973921234
 20
40.92443897637998
 30
0.0
 42
0.4142135623730951
  0
VERTEX
  5
14B
  8
0
 10
65.48129921234
 20
41.07287897637999
 30
0.0
 42
0.4142135623730951
  0
VERTEX
  5
14C
  8
0
 10
65.33285921234001
 20
40.92443897637998
 30
0.0
 42
0.4142135623730951
  0
VERTEX
  5
14D
  8
0
 10
65.48129921234
 20
40.77599897637999
 30
0.0
 42
0.4142135623730951
  0
SEQEND
  5
16E
  8
0
  0
POLYLINE
  5
8A
  8
0
 66
     1
 10
0.0
 20
0.0
 30
0.0
 70
     1
  0
VERTEX
  5
14E
  8
0
 10
65.62973921234001
 20
38.92443897637998
 30
0.0
 42
0.4142135623730951
  0
VERTEX
  5
14F
  8
0
 10
65.48129921234
 20
39.07287897638
 30
0.0
 42
0.4142135623730951
  0
VERTEX
  5
150
  8
0
 10
65.33285921234001
 20
38.92443897637998
 30
0.0
 42
0.4142135623730951
  0
VERTEX
  5
151
  8
0
 10
65.48129921234
 20
38.77599897637999
 30
0.0
 42
0.4142135623730951
  0
SEQEND
  5
16F
  8
0
  0
ENDSEC
  0
EOF
